<?xml version="1.0" encoding="UTF-8" standalone="no"?>
<!-- Creator: CorelDRAW -->

<svg
   xmlns:dc="http://purl.org/dc/elements/1.1/"
   xmlns:cc="http://creativecommons.org/ns#"
   xmlns:rdf="http://www.w3.org/1999/02/22-rdf-syntax-ns#"
   xmlns:svg="http://www.w3.org/2000/svg"
   xmlns="http://www.w3.org/2000/svg"
   xmlns:sodipodi="http://sodipodi.sourceforge.net/DTD/sodipodi-0.dtd"
   xmlns:inkscape="http://www.inkscape.org/namespaces/inkscape"
   xml:space="preserve"
   width="32px"
   height="32px"
   version="1.1"
   style="shape-rendering:geometricPrecision; text-rendering:geometricPrecision; image-rendering:optimizeQuality; fill-rule:evenodd; clip-rule:evenodd"
   viewBox="0 0 32 32"
   id="svg12"
   sodipodi:docname="ResearchGate_icon_SVG.svg"
   inkscape:version="0.92.5 (2060ec1f9f, 2020-04-08)"><metadata
   id="metadata16"><rdf:RDF><cc:Work
       rdf:about=""><dc:format>image/svg+xml</dc:format><dc:type
         rdf:resource="http://purl.org/dc/dcmitype/StillImage" /></cc:Work></rdf:RDF></metadata><sodipodi:namedview
   pagecolor="#ffffff"
   bordercolor="#666666"
   borderopacity="1"
   objecttolerance="10"
   gridtolerance="10"
   guidetolerance="10"
   inkscape:pageopacity="0"
   inkscape:pageshadow="2"
   inkscape:window-width="796"
   inkscape:window-height="480"
   id="namedview14"
   showgrid="false"
   inkscape:zoom="5.2149125"
   inkscape:cx="9.4849121"
   inkscape:cy="19.763025"
   inkscape:window-x="707"
   inkscape:window-y="308"
   inkscape:window-maximized="0"
   inkscape:current-layer="Capa_x0020_1" />
 <defs
   id="defs4">
  <style
   type="text/css"
   id="style2">
   <![CDATA[
    .fil0 {fill:#04D4AC;fill-rule:nonzero}
    .fil1 {fill:white;fill-rule:nonzero}
   ]]>
  </style>
 </defs>
 <g
   id="Capa_x0020_1">
  <metadata
   id="CorelCorpID_0Corel-Layer" />
  <path
   d="M 16.019531 -0.060546875 C 7.1695312 -0.060546875 0 7.1207031 0 15.970703 C 2.3684758e-15 24.820703 7.1695313 32 16.019531 32 C 24.859531 32 32.039062 24.820703 32.039062 15.970703 C 32.039062 7.1207031 24.859531 -0.060546875 16.019531 -0.060546875 z M 21.130859 6.8417969 C 21.920859 6.8730469 22.699141 7.1594531 23.119141 7.6894531 C 23.479141 8.1394531 23.449219 8.2796875 22.949219 8.4296875 C 22.559219 8.5596875 22.559219 8.5592188 22.199219 8.1992188 C 21.349219 7.3792187 19.879141 7.6802344 19.619141 8.7402344 C 19.489141 9.2102344 19.500859 11.200391 19.630859 11.650391 C 19.980859 12.920391 22.089219 12.920391 22.449219 11.650391 C 22.669219 10.840391 22.620391 10.780469 21.650391 10.730469 C 21.180391 10.710469 21.179688 10.710312 21.179688 10.320312 C 21.179688 9.9403125 21.180781 9.9401563 22.300781 9.9101562 C 23.750781 9.8801563 23.730156 9.8599219 23.660156 10.919922 C 23.570156 12.249922 23.209844 12.889531 22.339844 13.269531 C 21.769844 13.509531 20.990625 13.600234 20.390625 13.490234 C 18.840625 13.200234 18.330156 12.250547 18.410156 9.8105469 C 18.450156 8.4605469 18.560078 8.0892969 19.080078 7.5292969 C 19.540078 7.0342969 20.340859 6.8105469 21.130859 6.8417969 z M 12.482422 10.798828 C 14.459609 10.846641 15.090391 11.100312 15.900391 11.820312 C 17.030391 12.830312 17.189062 14.370156 16.289062 15.660156 C 15.889062 16.240156 15.090703 16.859844 14.470703 17.089844 C 14.180703 17.199844 13.939453 17.319375 13.939453 17.359375 C 13.939453 17.479375 14.859688 18.790234 15.429688 19.490234 C 16.949687 21.340234 17.769141 22.059297 18.619141 22.279297 C 19.149141 22.419297 19.300391 22.570078 19.150391 22.830078 C 18.990391 23.100078 18.19 23.160703 17.25 22.970703 C 15.82 22.690703 14.970781 21.860625 12.800781 18.640625 C 12.080781 17.560625 12.080859 17.559766 11.380859 17.509766 C 10.350859 17.439766 10.430938 17.259297 10.460938 19.529297 C 10.500937 22.109297 10.470937 22.050781 11.960938 22.300781 C 12.350938 22.360781 12.380859 22.389141 12.380859 22.619141 C 12.380859 22.879141 12.379766 22.880391 9.7597656 22.900391 C 7.2997656 22.920391 7.1398438 22.909766 7.0898438 22.759766 C 6.9898438 22.469766 7.1396875 22.330469 7.6796875 22.230469 C 8.2896875 22.120469 8.6094531 21.869219 8.6894531 21.449219 C 8.7294531 21.289219 8.7407031 19.130391 8.7207031 16.650391 C 8.6907031 11.440391 8.7490625 11.749063 7.7890625 11.539062 C 7.1890625 11.409062 7.0000781 11.269297 7.0800781 11.029297 C 7.1400781 10.869297 7.27 10.860547 10 10.810547 C 11.015 10.790547 11.823359 10.782891 12.482422 10.798828 z M 11.820312 11.740234 C 10.490312 11.740234 10.490703 11.740781 10.470703 14.050781 C 10.450703 15.320781 10.460234 16.420469 10.490234 16.480469 C 10.580234 16.690469 12.829922 16.579844 13.419922 16.339844 C 15.419922 15.519844 15.569922 12.770937 13.669922 11.960938 C 13.179922 11.750937 13.050312 11.740234 11.820312 11.740234 z "
   id="path7"
   style="fill:#ffffff" />
  
 </g>
</svg>